<svg viewBox="0 -66 511.99951 511" xmlns="http://www.w3.org/2000/svg"><path d="m77 147.738281v97.949219h29.3125c3.710938 0 8.40625 15.433594 12.980469 42.015625 5.703125 33.15625 24.859375 82.339844 90.203125 82.339844l260.121094.070312c18.1875 0 32.871093-14.992187 32.371093-33.292969-.480469-17.640624-15.398437-31.480468-33.046875-31.480468h-109.640625" fill="#ffd4b8"/><path d="m191.335938 237.320312 114.261718 92.671876c13.964844 11.175781 34.347656 8.917968 45.523438-5.046876 11.175781-13.964843 8.914062-34.347656-5.050782-45.523437l-136.566406-119.058594c-29.835937-27.265625-103.121094-22.652343-131.351562-19.695312-.394532.039062-.777344.082031-1.152344.121093v9.058594" fill="#ffd4b8"/><path d="m381.804688 228.554688c-11.890626 0-18.703126-4.246094-31.074219-11.953126-5.796875-3.609374-14.734375-9.359374-24.398438-16.25-37.230469-26.550781-48.570312-43.6875-53.859375-54.265624-10.386718-20.773438-13.457031-44.480469-8.644531-66.753907 4.996094-23.109375 17.808594-42.691406 36.085937-55.148437 13.136719-8.949219 28.449219-13.683594 44.285157-13.683594 6.34375 0 12.785156.761719 19.140625 2.257812 7.132812 1.683594 13.195312 4.199219 18.464844 7.183594 5.265624-2.984375 11.328124-5.5 18.460937-7.183594 6.355469-1.496093 12.796875-2.257812 19.144531-2.257812 15.835938 0 31.148438 4.734375 44.28125 13.683594 18.277344 12.457031 31.09375 32.042968 36.085938 55.148437 4.816406 22.269531 1.746094 45.980469-8.644532 66.753907-5.289062 10.578124-16.625 27.714843-53.859374 54.265624-9.664063 6.890626-18.601563 12.640626-24.394532 16.25-12.371094 7.707032-19.1875 11.953126-31.074218 11.953126zm0 0" fill="#ff6a81"/><path d="m381.804688 238.554688c-14.75 0-23.347657-5.355469-36.363282-13.464844-5.917968-3.6875-15.046875-9.5625-24.917968-16.597656-39.046876-27.847657-51.226563-46.402344-56.996094-57.9375-11.402344-22.800782-14.765625-48.847657-9.472656-73.335938 5.539062-25.625 19.824218-47.394531 40.226562-61.300781 14.804688-10.085938 32.0625-15.417969 49.917969-15.417969 7.117187 0 14.328125.847656 21.433593 2.523438 5.644532 1.328124 11.0625 3.222656 16.171876 5.652343 5.105468-2.429687 10.523437-4.324219 16.167968-5.652343 7.105469-1.675782 14.316406-2.523438 21.4375-2.523438 17.851563 0 35.113282 5.332031 49.914063 15.417969 20.40625 13.90625 34.691406 35.675781 40.230469 61.296875 5.292968 24.492187 1.925781 50.539062-9.476563 73.34375-5.765625 11.53125-17.949219 30.085937-56.996094 57.933594-9.867187 7.035156-18.996093 12.910156-24.917969 16.597656-13.011718 8.109375-21.613281 13.464844-36.359374 13.464844zm-37.605469-218.054688c-13.820313 0-27.183594 4.132812-38.652344 11.949219-16.148437 11.003906-27.492187 28.402343-31.945313 48.996093-4.332031 20.054688-1.558593 41.421876 7.816407 60.167969 4.8125 9.625 15.304687 25.339844 50.71875 50.59375 9.449219 6.738281 18.203125 12.371094 23.878906 15.90625 11.855469 7.382813 16.761719 10.441407 25.789063 10.441407 9.027343 0 13.933593-3.058594 25.789062-10.441407 5.675781-3.535156 14.429688-9.167969 23.875-15.90625 35.417969-25.253906 45.910156-40.96875 50.722656-50.59375 9.375-18.746093 12.148438-40.113281 7.8125-60.167969-4.449218-20.589843-15.792968-37.992187-31.941406-49-11.46875-7.8125-24.832031-11.945312-38.652344-11.945312-5.574218 0-11.246094.667969-16.847656 1.992188-5.730469 1.347656-10.910156 3.359374-15.832031 6.148437-3.054688 1.730469-6.796875 1.730469-9.855469 0-4.921875-2.789063-10.097656-4.800781-15.828125-6.148437-5.605469-1.324219-11.273437-1.992188-16.847656-1.992188zm0 0"/><path d="m430.859375 154.957031c10.828125-8.929687 20.324219-18.410156 24.5-26.761719 6.328125-12.660156 8.21875-27.011718 5.324219-40.414062-2.820313-13.039062-9.75-23.886719-19.515625-30.542969-9.289063-6.328125-20.257813-8.25-31.722657-5.546875-11.507812 2.710938-16.507812 9.890625-27.640624 21.355469-11.128907-11.464844-16.132813-18.644531-27.640626-21.355469-11.464843-2.699218-22.433593-.78125-31.722656 5.546875-9.765625 6.65625-16.695312 17.503907-19.515625 30.542969-2.894531 13.402344-1.003906 27.753906 5.324219 40.414062 12.542969 25.089844 73.089844 60.359376 73.554688 60.359376" fill="#ff4f4f"/><path d="m381.804688 198.554688c-2.867188 0-3.308594 0-15.210938-7.414063-5.433594-3.386719-13.808594-8.773437-22.84375-15.214844-23.527344-16.78125-38.480469-31.335937-44.441406-43.257812-7.347656-14.6875-9.53125-31.378907-6.15625-47 3.363281-15.554688 11.765625-28.589844 23.660156-36.691407 11.667969-7.953124 25.378906-10.378906 39.648438-7.019531 11.410156 2.691407 17.933593 8.769531 25.34375 16.566407 7.410156-7.796876 13.9375-13.875 25.347656-16.566407 14.261718-3.363281 27.976562-.9375 39.648437 7.019531 11.890625 8.101563 20.292969 21.132813 23.65625 36.691407 3.375 15.621093 1.191407 32.3125-6.152343 47-4.394532 8.78125-13.25 18.597656-27.082032 30.003906-4.257812 3.515625-10.5625 2.910156-14.074218-1.351563-3.515626-4.257812-2.910157-10.5625 1.347656-14.074218 14.289062-11.789063 19.804687-19.296875 21.917968-23.523438 5.316407-10.628906 6.914063-22.644531 4.496094-33.828125-2.277344-10.527343-7.734375-19.191406-15.375-24.394531-7.003906-4.773438-15.011718-6.148438-23.796875-4.078125-6.4375 1.519531-9.851562 4.933594-17.621093 13.191406-1.582032 1.679688-3.277344 3.480469-5.136719 5.398438-1.882813 1.9375-4.472657 3.03125-7.175781 3.03125-2.703126 0-5.292969-1.09375-7.175782-3.03125-1.859375-1.917969-3.554687-3.71875-5.136718-5.398438-7.773438-8.261719-11.183594-11.671875-17.621094-13.191406-8.789063-2.070313-16.792969-.695313-23.800782 4.078125-7.636718 5.207031-13.097656 13.867188-15.371093 24.390625-2.417969 11.1875-.820313 23.199219 4.496093 33.832031 9.699219 19.398438 58.492188 50.238282 68.828126 55.761719 3.414062 1.589844 5.78125 5.054687 5.78125 9.070313 0 5.523437-4.476563 10-10 10zm.023437-20h.003906c-.003906 0-.003906 0-.003906 0zm-.023437 0h.015624c-.007812 0-.011718 0-.015624 0zm0 0"/><path d="m165.699219 225.6875c-2.628907 0-5.210938-1.0625-7.070313-2.921875-.457031-.46875-.878906-.980469-1.238281-1.519531-.359375-.550782-.671875-1.128906-.921875-1.730469-.25-.597656-.4375-1.230469-.570312-1.867187-.128907-.652344-.1875-1.300782-.1875-1.953126 0-.660156.058593-1.308593.1875-1.957031.132812-.640625.320312-1.273437.570312-1.871093.25-.601563.5625-1.179688.921875-1.730469.359375-.539063.78125-1.058594 1.238281-1.519531 2.320313-2.320313 5.78125-3.378907 9.03125-2.730469.640625.128906 1.269532.320312 1.871094.570312.597656.25 1.179688.558594 1.71875.917969.550781.363281 1.058594.78125 1.519531 1.242188.46875.460937.878907.980468 1.25 1.519531.359375.550781.671875 1.128906.921875 1.730469.25.597656.4375 1.230468.570313 1.871093.128906.648438.1875 1.296875.1875 1.957031 0 .652344-.058594 1.300782-.1875 1.953126-.132813.636718-.320313 1.269531-.570313 1.867187-.25.601563-.5625 1.179687-.921875 1.730469-.371093.539062-.78125 1.050781-1.25 1.519531-.460937.460937-.96875.871094-1.519531 1.242187-.539062.359376-1.121094.667969-1.71875.917969-.601562.25-1.230469.441407-1.871094.570313-.648437.128906-1.300781.191406-1.960937.191406zm0 0"/><path d="m10 120.332031h67v159.5h-67zm0 0" fill="#5396a8"/><path d="m77 289.832031h-67c-5.523438 0-10-4.476562-10-10v-159.5c0-5.523437 4.476562-10 10-10h67c5.523438 0 10 4.476563 10 10v159.5c0 5.523438-4.476562 10-10 10zm-57-20h47v-139.5h-47zm0 0"/><path d="m10 120.332031h67v159.5h-67zm0 0" fill="#5396a8"/><path d="m511.984375 336.542969c-.625-22.71875-19.933594-41.203125-43.046875-41.203125h-101.785156c-2.023438-8.980469-6.96875-17.363282-14.660156-23.585938l-136.335938-118.855468c-28.945312-26.339844-89.683594-26.390626-129.15625-23.105469v-9.460938c0-5.523437-4.476562-10-10-10h-67c-5.523438 0-10 4.476563-10 10v159.5c0 5.523438 4.476562 10 10 10h67c5.523438 0 10-4.476562 10-10v-24.144531h14.558594c1.507812 3.894531 4.335937 13.128906 7.878906 33.714844 10.054688 58.449218 45.589844 90.640625 100.054688 90.640625l260.121093.070312c11.542969 0 22.332031-4.554687 30.382813-12.828125 8.046875-8.273437 12.304687-19.1875 11.988281-30.742187zm-444.984375-66.710938h-47v-139.5h47zm418.660156 83.503907c-4.25 4.371093-9.949218 6.777343-16.042968 6.777343l-260.125-.070312c-55.878907 0-74.535157-40.261719-80.347657-74.035157-2.359375-13.710937-4.75-24.550781-7.109375-32.222656-1.945312-6.324218-5.566406-18.097656-15.722656-18.097656h-19.3125v-85.8125c28.207031-2.371094 91.03125-4.730469 115.757812 17.867188.054688.050781.113282.105468.171876.15625l136.570312 119.058593c.105469.09375.210938.183594.320312.269531 9.640626 7.714844 11.203126 21.832032 3.492188 31.46875-7.714844 9.636719-21.828125 11.203126-31.414062 3.53125l-114.265626-92.675781c-4.289062-3.476562-10.585937-2.820312-14.066406 1.46875-3.476562 4.289063-2.820312 10.585938 1.46875 14.066407l114.3125 92.710937c7.589844 6.078125 16.820313 9.300781 26.402344 9.300781 1.578125 0 3.164062-.089844 4.753906-.265625 11.253906-1.246093 21.347656-6.800781 28.421875-15.640625 3.855469-4.820312 6.488281-10.230468 7.9375-15.855468h102.074219c12.382812 0 22.722656 9.757812 23.054688 21.753906.164062 6.109375-2.082032 11.878906-6.332032 16.246094zm0 0"/></svg>