<svg id="Layer_1" data-name="Layer 1" xmlns="http://www.w3.org/2000/svg" viewBox="0 0 276.4 95.04"><defs><style>.cls-1{fill:#00b5e0;}.cls-2{fill:#fff;}</style></defs><path class="cls-1" d="M122,77.81l6.4-17.63.13,5.18L114.08,29.74h8.68L132.5,55h-2l9.67-25.21h8.38L129.79,77.81Z"/><path class="cls-1" d="M165.29,63.94a16.91,16.91,0,0,1-8.81-2.25,15.54,15.54,0,0,1-5.9-6.21,19,19,0,0,1-2.11-9.1,19,19,0,0,1,2.15-9.17A15.64,15.64,0,0,1,156.57,31a18.34,18.34,0,0,1,17.55,0,15.75,15.75,0,0,1,5.93,6.21,18.87,18.87,0,0,1,2.12,9.1A18.9,18.9,0,0,1,180,55.52a15.73,15.73,0,0,1-5.94,6.19A17.06,17.06,0,0,1,165.29,63.94Zm0-7.82a7,7,0,0,0,6-2.73,11.57,11.57,0,0,0,2-7,11.39,11.39,0,0,0-2-7.09,7.07,7.07,0,0,0-6-2.65,7.6,7.6,0,0,0-4.5,1.24,7.21,7.21,0,0,0-2.6,3.42,13.87,13.87,0,0,0-.85,5.08,11.34,11.34,0,0,0,2,7.1A7,7,0,0,0,165.29,56.12Z"/><path class="cls-1" d="M187.57,63V17.73H196V63Z"/><path class="cls-1" d="M203.34,63V17.73h8.38V63Z"/><path class="cls-1" d="M215.38,36.21V29.74H239v6.47ZM239,63a32.67,32.67,0,0,1-6.76.57,16.12,16.12,0,0,1-5.92-1.17,7.92,7.92,0,0,1-4-3.53,10.14,10.14,0,0,1-1.3-4.64q-.06-2.36-.06-5.34V20.5h8.38V48.41c0,1.3,0,2.46,0,3.5a4.87,4.87,0,0,0,.63,2.48,4.21,4.21,0,0,0,3.54,1.91,27.46,27.46,0,0,0,5.39-.25Z"/><path class="cls-1" d="M249.84,77.81l6.41-17.63.13,5.18L241.9,29.74h8.68L260.32,55h-2L268,29.74h8.38L257.61,77.81Z"/><rect class="cls-1" width="95.04" height="95.04" rx="20.37"/><path class="cls-2" d="M73.7,54.51c-9,9.22-19.52,4.85-22.83,3.82,4.81-15.36,8.05-34,1.7-41.77-2.5-3.07-7.92-.8-6.94,1.43,5.18,11.78-2.83,24.29-7.43,30.67,2-6.19,6.6-25.23.88-25.93-3.42-.42-11.21,12.66-12.16,14.43s0,3.24,1.92,4.09c0,0,4.33-8.53,5.77-8s-1.74,15.82-1.74,15.82c-.21.61,0,2.31,2.14,3.45a5.62,5.62,0,0,0,4.52.06C41.34,50.69,47,42.46,47,42.46,46.14,46.89,45.17,52,44,57c-5.62-.47-12.31.58-15.37,7s-.73,15.53,5,18.48c2.74,1.41,6.35.94,8.85-3.44a109.23,109.23,0,0,0,7.17-17c8.73,2.85,19.64,10.34,27.52-4.28,1.32-2.46-1.48-5.24-3.49-3.2m-37,22.88c-3.14-1.91-2.52-5.85-.9-10,1.11-2.87,3.27-5.62,7.22-6.19-1.68,6.52-3.72,12.52-6.32,16.2"/></svg>